Coordinates
version=1
nRows=13
nColumns=40
inDegrees=yes

Units are S.I. units (second, meters, Newtons, ...)
If the header above contains a line with 'inDegrees', this indicates whether rotational values are in degrees (yes) or radians (no).

endheader
time	pelvis_tilt	pelvis_list	pelvis_rotation	pelvis_tx	pelvis_ty	pelvis_tz	hip_flexion_r	hip_adduction_r	hip_rotation_r	knee_angle_r	knee_angle_r_beta	ankle_angle_r	subtalar_angle_r	mtp_angle_r	hip_flexion_l	hip_adduction_l	hip_rotation_l	knee_angle_l	knee_angle_l_beta	ankle_angle_l	subtalar_angle_l	mtp_angle_l	lumbar_extension	lumbar_bending	lumbar_rotation	arm_flex_r	arm_add_r	arm_rot_r	elbow_flex_r	pro_sup_r	wrist_flex_r	wrist_dev_r	arm_flex_l	arm_add_l	arm_rot_l	elbow_flex_l	pro_sup_l	wrist_flex_l	wrist_dev_l
      3.12500000	      5.79859624	      1.53857147	      1.51694793	     -0.38895083	      0.79024925	     -0.76245959	     44.51001461	      5.26393562	     -0.66883876	     87.14801580	      1.52101981	     31.60759149	      0.00000000	      0.00000000	     62.44321670	      3.45104203	      4.19210355	     16.79725113	      0.29316734	     -7.54046559	      0.00000000	      0.00000000	    -38.76209840	     -0.22055685	     -0.20827982	     89.93217519	    -11.53924271	     10.44625439	     52.59569571	     86.88685018	      0.00000000	      0.00000000	     89.93602620	     -5.86386372	      9.96523306	     51.18072792	     84.65121061	      0.00000000	      0.00000000
      3.13000000	      5.76001738	      1.54927221	      1.56689669	     -0.38889230	      0.79021372	     -0.76238288	     44.54421725	      5.27941902	     -0.64768290	     87.15510101	      1.52114347	     31.64967888	      0.00000000	      0.00000000	     62.53247768	      3.49521495	      4.00319218	     16.88064327	      0.29462280	     -7.59626575	      0.00000000	      0.00000000	    -38.74499598	     -0.20712516	     -0.31196078	     89.93269936	    -11.45223927	     10.53599944	     52.61963602	     86.53805561	      0.00000000	      0.00000000	     89.93605930	     -6.09409280	     10.09799497	     51.27604500	     85.73195309	      0.00000000	      0.00000000
      3.13500000	      5.76420040	      1.57287074	      1.60647333	     -0.38883957	      0.79027692	     -0.76239740	     44.52732161	      5.27087251	     -0.61827070	     87.14685436	      1.52099954	     31.65332482	      0.00000000	      0.00000000	     62.52384543	      3.54377852	      3.92703726	     16.86735596	      0.29439090	     -7.59736347	      0.00000000	      0.00000000	    -38.76885490	     -0.22483789	     -0.31820713	     89.93291695	    -11.52877088	     10.58773685	     52.67354311	     86.56406684	      0.00000000	      0.00000000	     89.93596201	     -6.03170298	     10.06840565	     51.27663249	     85.70418914	      0.00000000	      0.00000000
      3.14000000	      5.73570012	      1.59036926	      1.66618723	     -0.38875996	      0.79027988	     -0.76238362	     44.54934405	      5.25275711	     -0.61724686	     87.14779089	      1.52101589	     31.69593625	      0.00000000	      0.00000000	     62.55587139	      3.60436880	      3.85993397	     16.86958886	      0.29442987	     -7.63139699	      0.00000000	      0.00000000	    -38.74849942	     -0.22547415	     -0.36931049	     89.93280528	    -11.50497203	     10.52052479	     52.65350544	     86.54493809	      0.00000000	      0.00000000	     89.93609554	     -6.03648265	     10.09820469	     51.27155047	     85.73406251	      0.00000000	      0.00000000
      3.14500000	      5.74061841	      1.61581635	      1.71789660	     -0.38869217	      0.79038455	     -0.76239407	     44.53389635	      5.23528001	     -0.60198498	     87.15030854	      1.52105983	     31.74638035	      0.00000000	      0.00000000	     62.52078427	      3.66116354	      3.84333259	     16.82552347	      0.29366078	     -7.65993617	      0.00000000	      0.00000000	    -38.77565271	     -0.22271470	     -0.39763840	     89.93297348	    -11.48818495	     10.42131511	     52.63974582	     86.88770695	      0.00000000	      0.00000000	     89.93602246	     -6.02336433	     10.14024162	     51.29654711	     84.94951628	      0.00000000	      0.00000000
      3.15000000	      5.71802349	      1.62060403	      1.75677553	     -0.38864180	      0.79041620	     -0.76236605	     44.54316625	      5.23185354	     -0.59306355	     87.13337412	      1.52076427	     31.70842463	      0.00000000	      0.00000000	     62.56331582	      3.69568833	      3.81144166	     16.85656139	      0.29420250	     -7.63913148	      0.00000000	      0.00000000	    -38.76244037	     -0.23260011	     -0.42545350	     89.93295751	    -11.54175589	     10.54038453	     52.69089927	     86.56422076	      0.00000000	      0.00000000	     89.93612677	     -6.00253545	     10.06398885	     51.27033157	     85.70253741	      0.00000000	      0.00000000
      3.15500000	      5.71231757	      1.62294606	      1.80677052	     -0.38859697	      0.79048710	     -0.76240038	     44.53328598	      5.20956626	     -0.60477303	     87.12170431	      1.52056059	     31.72171128	      0.00000000	      0.00000000	     62.54796319	      3.73747898	      3.80955614	     16.81550792	      0.29348598	     -7.65626557	      0.00000000	      0.00000000	    -38.76812431	     -0.21550044	     -0.43508903	     89.93294192	    -11.55951064	     10.44881709	     52.73225122	     86.82356705	      0.00000000	      0.00000000	     89.93608546	     -5.97913200	     10.13311647	     51.27292117	     85.12907101	      0.00000000	      0.00000000
      3.16000000	      5.73175138	      1.64268595	      1.83600095	     -0.38851961	      0.79063634	     -0.76236387	     44.49430836	      5.20500405	     -0.57735725	     87.10643888	      1.52029416	     31.75331317	      0.00000000	      0.00000000	     62.53555302	      3.76592468	      3.71236337	     16.84473807	      0.29399614	     -7.65728054	      0.00000000	      0.00000000	    -38.80372874	     -0.24241120	     -0.42668240	     89.93295799	    -11.61464026	     10.40907325	     52.76621444	     86.97361351	      0.00000000	      0.00000000	     89.93619956	     -5.91766977	     10.17284656	     51.25672980	     84.63179539	      0.00000000	      0.00000000
      3.16500000	      5.69592702	      1.61282412	      1.89755925	     -0.38849865	      0.79067314	     -0.76236138	     44.52161986	      5.19557343	     -0.63489535	     87.08583480	      1.51993455	     31.69228429	      0.00000000	      0.00000000	     62.55554080	      3.79276038	      3.78696334	     16.80818613	      0.29335819	     -7.65478617	      0.00000000	      0.00000000	    -38.77633322	     -0.18601361	     -0.46172989	     89.93315410	    -11.59434342	     10.45434031	     52.79037594	     86.62058310	      0.00000000	      0.00000000	     89.93603640	     -5.94586836	     10.11082762	     51.26927474	     85.58559324	      0.00000000	      0.00000000
      3.17000000	      5.70371441	      1.62771270	      1.93716578	     -0.38843357	      0.79080915	     -0.76242450	     44.50019055	      5.14036033	     -0.65726259	     87.07940250	      1.51982228	     31.68265747	      0.00000000	      0.00000000	     62.52200367	      3.83714655	      3.81138253	     16.77794844	      0.29283044	     -7.65115335	      0.00000000	      0.00000000	    -38.79446079	     -0.18146664	     -0.43721199	     89.93328128	    -11.63990612	     10.41674059	     52.76002421	     86.88032220	      0.00000000	      0.00000000	     89.93604454	     -5.82674104	     10.07740385	     51.20952374	     84.61958035	      0.00000000	      0.00000000
      3.17500000	      5.69238830	      1.64084148	      1.94871991	     -0.38837766	      0.79092258	     -0.76237706	     44.49218617	      5.14101272	     -0.64019381	     87.05627977	      1.51941872	     31.68083895	      0.00000000	      0.00000000	     62.53567839	      3.83727746	      3.76517582	     16.79550743	      0.29313690	     -7.65896794	      0.00000000	      0.00000000	    -38.79615379	     -0.18640420	     -0.45788833	     89.93319226	    -11.63021434	     10.47436815	     52.80543712	     86.54684999	      0.00000000	      0.00000000	     89.93613786	     -5.89414860	     10.06038524	     51.24165605	     85.71302656	      0.00000000	      0.00000000
      3.18000000	      5.69438153	      1.64239995	      1.98756989	     -0.38832810	      0.79106418	     -0.76240677	     44.47010456	      5.10649591	     -0.66714127	     87.02686646	      1.51890536	     31.64803250	      0.00000000	      0.00000000	     62.52290715	      3.86066249	      3.77732124	     16.78925342	      0.29302775	     -7.64517831	      0.00000000	      0.00000000	    -38.80497654	     -0.17237221	     -0.46184389	     89.93322114	    -11.66496444	     10.49029484	     52.82001423	     86.64086420	      0.00000000	      0.00000000	     89.93617598	     -5.88108533	     10.12117040	     51.22979304	     85.55341510	      0.00000000	      0.00000000
      3.18500000	      5.69198274	      1.64432287	      1.99684640	     -0.38825702	      0.79120489	     -0.76239504	     44.45409382	      5.08691216	     -0.68072314	     87.01028788	      1.51861601	     31.64197997	      0.00000000	      0.00000000	     62.50423805	      3.85759678	      3.80546500	     16.76589018	      0.29261999	     -7.64509067	      0.00000000	      0.00000000	    -38.80925282	     -0.17013704	     -0.44744088	     89.93332371	    -11.67056176	     10.45972969	     52.84930260	     86.60627193	      0.00000000	      0.00000000	     89.93604547	     -5.85469254	     10.07196941	     51.21708169	     85.63522077	      0.00000000	      0.00000000
